<svg width="12" height="12" viewBox="0 0 12 12" fill="none" xmlns="http://www.w3.org/2000/svg">
<g clip-path="url(#clip0_538_29430)">
<path d="M6 12.0001H5.925L0.3 10.7501C0.125 10.7001 0 10.5501 0 10.3751V0.375098C0 0.250098 0.05 0.150098 0.15 0.0750977C0.25 9.76548e-05 0.35 -0.0249023 0.45 9.76566e-05L6.075 1.2501C6.25 1.3001 6.375 1.4501 6.375 1.6251V11.6251C6.375 11.7501 6.325 11.8501 6.225 11.9251C6.175 11.9751 6.075 12.0001 6 12.0001ZM0.75 10.0751L5.625 11.1501V1.9251L0.75 0.850098V10.0751Z" fill="#8E8E8E"/>
<path d="M6 12.0001C5.925 12.0001 5.825 11.9751 5.775 11.9251C5.675 11.8501 5.625 11.7501 5.625 11.6251V1.6251C5.625 1.4501 5.75 1.3001 5.925 1.2501L11.55 9.76566e-05C11.65 -0.0249023 11.775 9.76548e-05 11.875 0.0750977C11.95 0.150098 12 0.250098 12 0.375098V10.3751C12 10.5501 11.875 10.7001 11.7 10.7501L6.075 12.0001H6ZM6.375 1.9251V11.1501L11.25 10.0751V0.850098L6.375 1.9251V1.9251Z" fill="#8E8E8E"/>
<path d="M7.625 9.6999C7.45 9.6999 7.3 9.5749 7.25 9.3999C7.2 9.1999 7.325 8.9999 7.525 8.9499L9.9 8.4249C10.1 8.3749 10.3 8.4999 10.35 8.6999C10.4 8.8999 10.275 9.0999 10.075 9.1499L7.7 9.6749C7.675 9.6999 7.65 9.6999 7.625 9.6999V9.6999ZM4.375 9.6999H4.3L1.925 9.1749C1.725 9.1249 1.6 8.9249 1.65 8.7249C1.7 8.5249 1.9 8.3999 2.1 8.4499L4.475 8.9749C4.675 9.0249 4.8 9.2249 4.75 9.4249C4.7 9.5749 4.55 9.6999 4.375 9.6999ZM4.375 6.1999H4.3L1.925 5.6749C1.75 5.6249 1.625 5.4749 1.625 5.2999V2.6749C1.625 2.5499 1.675 2.4499 1.775 2.3749C1.875 2.2999 1.975 2.2749 2.1 2.2999L4.475 2.8249C4.65 2.8749 4.775 3.0249 4.775 3.1999V5.8249C4.775 5.9499 4.725 6.0499 4.625 6.1249C4.55 6.1749 4.45 6.1999 4.375 6.1999V6.1999ZM2.375 4.9999L4 5.3499V3.4999L2.375 3.1499V4.9999V4.9999ZM7.625 6.1999C7.55 6.1999 7.45 6.1749 7.4 6.1249C7.3 6.0499 7.25 5.9499 7.25 5.8249V3.1999C7.25 3.0249 7.375 2.8749 7.55 2.8249L9.925 2.2999C10.025 2.2749 10.15 2.2999 10.25 2.3749C10.35 2.4499 10.4 2.5499 10.4 2.6749V5.2999C10.4 5.4749 10.275 5.6249 10.1 5.6749L7.725 6.1999H7.625V6.1999ZM8 3.4999V5.3499L9.625 4.9999V3.1499L8 3.4999ZM7.625 8.1999C7.45 8.1999 7.3 8.0749 7.25 7.8999C7.2 7.6999 7.325 7.4999 7.525 7.4499L9.9 6.9249C10.1 6.8749 10.3 6.9999 10.35 7.1999C10.4 7.3999 10.275 7.5999 10.075 7.6499L7.7 8.1749C7.675 8.1999 7.65 8.1999 7.625 8.1999V8.1999Z" fill="#8E8E8E"/>
</g>
<defs>
<clipPath id="clip0_538_29430">
<rect width="12" height="12" fill="white"/>
</clipPath>
</defs>
</svg>
