<svg width="22" height="22" viewBox="0 0 22 22" fill="none" xmlns="http://www.w3.org/2000/svg">
<g clip-path="url(#clip0_447_28635)">
<path d="M20.8529 22H13.7945C13.4279 22 13.107 21.6792 13.107 21.3125V15.675C13.107 14.4833 12.1445 13.5667 10.9987 13.5667C9.85286 13.5667 8.89036 14.5292 8.89036 15.675V21.3125C8.89036 21.6792 8.56953 22 8.20286 22H1.14453C0.777865 22 0.457031 21.6792 0.457031 21.3125V10.5417C0.457031 10.3583 0.548698 10.175 0.640365 10.0375L10.4945 0.183331C10.7695 -0.0916687 11.2279 -0.0916687 11.457 0.183331L21.3112 10.0375C21.4487 10.175 21.4945 10.3583 21.4945 10.5417V21.3125C21.5404 21.6792 21.2195 22 20.8529 22Z" fill="#262626"/>
</g>
<defs>
<clipPath id="clip0_447_28635">
<rect width="22" height="22" fill="white"/>
</clipPath>
</defs>
</svg>
