<svg width="22" height="22" viewBox="0 0 22 22" fill="none" xmlns="http://www.w3.org/2000/svg">
<g clip-path="url(#clip0_447_28639)">
<path d="M16.5904 7.65416L13.2904 10.175C13.0612 10.3583 12.7404 10.3583 12.5112 10.175L10.0362 8.34166C9.30286 7.79166 8.2487 7.975 7.74453 8.75416L4.62786 13.6583C4.30703 14.1167 4.90286 14.6667 5.3612 14.3458L8.70703 11.825C8.9362 11.6417 9.25703 11.6417 9.4862 11.825L11.9612 13.6583C12.6945 14.2083 13.7487 14.025 14.2529 13.2458L17.3695 8.34166C17.6445 7.8375 17.0487 7.33333 16.5904 7.65416V7.65416ZM10.9987 0.458328C5.04036 0.458328 0.457031 4.81249 0.457031 10.6792C0.457031 13.75 1.69453 16.4083 3.75703 18.2417C3.94036 18.3792 4.03203 18.6083 4.03203 18.8375L4.1237 20.7167C4.1237 21.175 4.5362 21.5417 4.9487 21.5417C5.04036 21.5417 5.17786 21.5417 5.26953 21.45L7.37786 20.5333C7.46953 20.4875 7.60703 20.4417 7.6987 20.4417C7.79036 20.4417 7.8362 20.4417 7.92786 20.4875C8.89036 20.7625 9.8987 20.9 10.9987 20.9C16.957 20.9 21.5404 16.5458 21.5404 10.6792C21.5404 4.81249 16.957 0.458328 10.9987 0.458328ZM10.9987 19.525C10.082 19.525 9.16536 19.3875 8.29453 19.1583C8.1112 19.1125 7.92786 19.0667 7.6987 19.0667C7.37786 19.0667 7.10286 19.1125 6.78203 19.25L5.40703 19.8458V18.7917C5.40703 18.1958 5.13203 17.6458 4.6737 17.2333C2.84036 15.5833 1.83203 13.2458 1.83203 10.6792C1.83203 5.63749 5.7737 1.83333 10.9987 1.83333C16.2237 1.83333 20.1654 5.63749 20.1654 10.6792C20.1654 15.7208 16.2237 19.525 10.9987 19.525Z" fill="#262626"/>
</g>
<defs>
<clipPath id="clip0_447_28639">
<rect width="22" height="22" fill="white"/>
</clipPath>
</defs>
</svg>
