<svg width="24" height="21" viewBox="0 0 24 21" fill="none" xmlns="http://www.w3.org/2000/svg">
<path d="M11.7316 19.8218L11.9923 19.9877L12.2572 19.8287C12.5571 19.6488 13.0863 19.1964 13.8443 18.524C14.2448 18.1687 14.7243 17.7381 15.2869 17.2327C15.812 16.761 16.4096 16.2242 17.083 15.623C17.4084 15.3324 17.7403 15.0437 18.0723 14.755C19.1376 13.8283 20.2029 12.9016 21.0538 11.9138C22.1861 10.5994 23 9.11259 23 7.25C23 3.87243 20.4723 1 17.3 1C16.1655 1 15.2622 1.27159 14.5284 1.7161C13.8012 2.15663 13.267 2.75087 12.8429 3.35968C12.4455 3.90394 12.1822 4.33999 12 4.66537C11.8178 4.33999 11.5545 3.90394 11.1571 3.35968C10.733 2.75087 10.1988 2.15663 9.47156 1.7161C8.73777 1.27159 7.83448 1 6.7 1C3.52767 1 1 3.87243 1 7.25C1 9.11022 1.79923 10.5965 2.92649 11.9127C3.80905 12.9432 4.92562 13.9043 6.04804 14.8704C6.33906 15.1209 6.63048 15.3717 6.91832 15.6242C7.35289 16.0135 7.76857 16.3871 8.16104 16.7398C8.8489 17.3581 9.46544 17.9122 9.98728 18.3743C10.7917 19.0866 11.4147 19.6202 11.7316 19.8218ZM11.5961 3.09473L12.0054 3.65563L12.4076 3.0896C13.6681 1.31559 15.2191 0.5 17.3 0.5C20.6873 0.5 23.5 3.48809 23.5 7.25C23.5 10.6768 21.0683 12.8335 18.3941 15.0541C18.1389 15.2381 17.8935 15.4584 17.6647 15.6638C17.5646 15.7536 17.4678 15.8405 17.3746 15.9204L17.3745 15.9203L17.3655 15.9284L16.3655 16.8284L16.3655 16.8283L16.3615 16.832C15.1108 17.9827 14.2653 18.7535 13.6707 19.2737C13.0691 19.8002 12.7497 20.0471 12.5428 20.1713C12.3371 20.2947 12.1771 20.35 12 20.35C11.865 20.35 11.6535 20.289 11.4572 20.1713C11.252 20.0481 10.8864 19.7549 10.2651 19.216C9.82454 18.8339 9.2738 18.3448 8.58614 17.7341C8.32201 17.4996 8.03769 17.2471 7.73165 16.9758L7.72809 16.9727L6.59103 15.9839C6.27839 15.6727 5.92109 15.3668 5.62369 15.1189C2.98632 12.8365 0.5 10.6329 0.5 7.25C0.5 3.48616 3.31281 0.504273 6.69324 0.549954L6.69324 0.55H6.7C8.78258 0.55 10.3356 1.36735 11.5961 3.09473Z" fill="#262626" stroke="#FF0000"/>
</svg>
