<svg width="24" height="24" viewBox="0 0 24 24" fill="none" xmlns="http://www.w3.org/2000/svg">
<g clip-path="url(#clip0_495_28641)">
<path d="M12 24C5.4 24 0 18.6 0 12C0 5.4 5.4 0 12 0C18.6 0 24 5.4 24 12C24 18.6 18.6 24 12 24ZM12 1.5C6.2 1.5 1.5 6.2 1.5 12C1.5 17.8 6.2 22.5 12 22.5C17.8 22.5 22.5 17.8 22.5 12C22.5 6.2 17.8 1.5 12 1.5Z" fill="#262626"/>
<path d="M17.4508 12C17.4508 11.3 16.9008 10.75 16.2008 10.75C15.5008 10.75 14.9508 11.3 14.9508 12C14.9508 12.7 15.5008 13.25 16.2008 13.25C16.9008 13.25 17.4508 12.7 17.4508 12ZM6.55078 12C6.55078 11.3 7.10078 10.75 7.80078 10.75C8.50078 10.75 9.05078 11.3 9.05078 12C9.05078 12.7 8.50078 13.25 7.80078 13.25C7.10078 13.25 6.55078 12.7 6.55078 12ZM12.0008 18.65C9.40078 18.65 8.00078 16.9 7.90078 16.8C7.65078 16.5 7.70078 16 8.00078 15.75C8.30078 15.5 8.80078 15.55 9.05078 15.85C9.10078 15.9 10.1008 17.1 11.9508 17.1C13.8008 17.1 14.8508 15.85 14.8508 15.85C15.1008 15.55 15.6008 15.5 15.9008 15.75C16.2008 16 16.2508 16.5 16.0008 16.8C16.0008 16.9 14.6008 18.65 12.0008 18.65V18.65Z" fill="#262626"/>
</g>
<defs>
<clipPath id="clip0_495_28641">
<rect width="24" height="24" fill="white"/>
</clipPath>
</defs>
</svg>
